<svg xmlns="http://www.w3.org/2000/svg" viewBox="0 0 1200 760"><title>刘佳现场捧杯喜极而泣夺冠纪念插画</title><defs><linearGradient id="g" x2="1" y2="1"><stop stop-color="#091b16"/><stop offset=".58" stop-color="#1d513c"/><stop offset="1" stop-color="#b9d957"/></linearGradient><pattern id="p" width="48" height="48" patternUnits="userSpaceOnUse"><path d="M48 0H0V48" fill="none" stroke="#d9e6bf" stroke-opacity=".12"/></pattern></defs><rect width="1200" height="760" fill="url(#g)"/><rect width="1200" height="760" fill="url(#p)"/><circle cx="890" cy="250" r="190" fill="#b9d957" opacity=".18"/><path d="M730 760L1010 0h190L930 760z" fill="#dd654b" opacity=".3"/><g transform="translate(810 185)"><circle cx="100" cy="95" r="53" fill="#e8ac82"/><path d="M48 91c2-61 101-76 118-8-30-19-65-20-112 8z" fill="#161713"/><path d="M35 152c30-48 131-45 165 9l-18 181H54z" fill="#102a23"/><path d="M82 154l19 112 32-42 33 42 6-112" fill="#b9d957"/><path d="M72 108c8 12 18 16 28 3M127 112c8 12 18 10 25-2" fill="none" stroke="#5c2923" stroke-width="5" stroke-linecap="round"/><path d="M91 128c12 18 28 19 40 0" fill="none" stroke="#b94d3b" stroke-width="5" stroke-linecap="round"/><path d="M44 160l-80 66M165 159l73 67" stroke="#e8ac82" stroke-width="25" stroke-linecap="round"/><path d="M-22 236h190" stroke="#e8ac82" stroke-width="16" stroke-linecap="round"/><path d="M13 210h120l-12-115H26z" fill="#d8b35b" stroke="#fff0a8" stroke-width="7"/><path d="M33 128h80M38 162h70" stroke="#fff0a8" stroke-width="6"/></g><text x="72" y="105" fill="#b9d957" font-family="Arial,sans-serif" font-size="24" font-weight="700" letter-spacing="8">THE COMEBACK</text><text x="72" y="245" fill="#f1f3e8" font-family="Arial,'Microsoft YaHei',sans-serif" font-size="110" font-weight="900">捧杯时刻</text><text x="80" y="310" fill="#d9e6bf" font-family="Arial,'Microsoft YaHei',sans-serif" font-size="30">刘佳 · 喜极而泣 · 终于夺冠</text><text x="80" y="625" fill="#b9d957" font-family="Arial,sans-serif" font-size="90" font-weight="900">2026</text><text x="84" y="674" fill="#f1f3e8" font-family="Arial,'Microsoft YaHei',sans-serif" font-size="21" letter-spacing="4">全国职业联赛 · 总冠军</text></svg>